# xmcd
#
# Track frame offsets:
#	150
#	17434
#	33385
#	46323
#	67757
#	81749
#	97793
#	115003
#	128849
#	146855
#	160703
#	179432
#	196123
#	213247
#	236436
#	253458
#	265860
#	275879
#	301197
#	317183
#
# Disc length: 4569 seconds
#
# Revision: 1
# Processed by: cddbd v1.5.2PL0 Copyright (c) Steve Scherf et al.
# Submitted via: audiograbber 1.83.01
#
DISCID=1811d714
DTITLE=100 Rock Hits  - 100 Rock Hits [CD3)
DYEAR=2008
DGENRE=Rock
TTITLE0=Eric Burdon-San Francisco Night
TTITLE1=Rod Steward-Can I Get A Witness
TTITLE2=Tina Turner-I Better Getta Steppin
TTITLE3=Ian Cussick-Dogs Of War
TTITLE4=Chicago-Does Anybody Knows What Time It Is
TTITLE5=Roxy Music-Do The Strand (Live)
TTITLE6=Eric Clapton &Ginger Baker,Jack Bruce-Big Boss Man
TTITLE7=Jeff Back-Jeff´s Blues
TTITLE8=Jimy Hendrix-Hey Joe
TTITLE9=Van Morrison-Brown Eyed Girl
TTITLE10=John Mayall-John Lee Boogie
TTITLE11=Wishbone Ash-Helpless (Live)
TTITLE12=Random-Rock Hard
TTITLE13=The Strangers-Knockin On Heavens Door
TTITLE14=The String Beats-Living In A Dream
TTITLE15=Blood Sweat and Tears-I Can´t Move No Mountain
TTITLE16=The American Breed-Bend Me Shape Me
TTITLE17=ELO II-Roll Over Beethoven (Live)
TTITLE18=Mott The Hoople-Foxy Foxy
TTITLE19=Uriah Heep-Stealin (Live)
EXTD=
EXTT0=
EXTT1=
EXTT2=
EXTT3=
EXTT4=
EXTT5=
EXTT6=
EXTT7=
EXTT8=
EXTT9=
EXTT10=
EXTT11=
EXTT12=
EXTT13=
EXTT14=
EXTT15=
EXTT16=
EXTT17=
EXTT18=
EXTT19=
PLAYORDER=
